<svg width="126.101" height="71.201" viewBox="0 0 128 128" xmlns="http://www.w3.org/2000/svg">
    <path
        d="M 62.301 10.201 L 57.601 14.901 A 27.785 27.785 0 0 0 52.026 10.448 A 24.026 24.026 0 0 0 48.101 8.551 A 31.113 31.113 0 0 0 38.48 6.635 A 35.98 35.98 0 0 0 36.901 6.601 Q 30.601 6.601 25.201 8.751 Q 19.801 10.901 15.801 14.851 Q 11.801 18.801 9.551 24.051 A 28.048 28.048 0 0 0 7.408 32.895 A 33.476 33.476 0 0 0 7.301 35.601 A 30.779 30.779 0 0 0 8.179 43.065 A 26.803 26.803 0 0 0 9.551 47.151 Q 11.801 52.401 15.801 56.351 Q 19.801 60.301 25.201 62.451 A 30.705 30.705 0 0 0 34.954 64.548 A 35.743 35.743 0 0 0 36.901 64.601 Q 42.901 64.601 48.101 62.601 Q 53.301 60.601 57.601 56.201 L 62.301 60.901 Q 57.701 66.001 51.001 68.601 A 39.026 39.026 0 0 1 38.036 71.178 A 44.799 44.799 0 0 1 36.601 71.201 A 41.248 41.248 0 0 1 26.527 70.004 A 36.352 36.352 0 0 1 22.001 68.551 Q 15.301 65.901 10.401 61.101 Q 5.501 56.301 2.751 49.801 A 35.205 35.205 0 0 1 0.082 38.212 A 41.479 41.479 0 0 1 0.001 35.601 A 37.73 37.73 0 0 1 1.242 25.795 A 33.567 33.567 0 0 1 2.751 21.401 Q 5.501 14.901 10.451 10.101 Q 15.401 5.301 22.101 2.651 A 38.267 38.267 0 0 1 33.75 0.096 A 45.178 45.178 0 0 1 36.701 0.001 Q 44.301 0.001 51.001 2.551 Q 57.701 5.101 62.301 10.201 Z M 85.501 7.001 L 85.501 70.601 L 78.101 70.601 L 78.101 0.601 L 126.101 0.601 L 126.101 7.001 L 85.501 7.001 Z M 84.701 40.901 L 84.701 34.501 L 121.701 34.501 L 121.701 40.901 L 84.701 40.901 Z"
        vector-effect="non-scaling-stroke" />
    <style>
        path { fill: #000; }
        @media (prefers-color-scheme: dark) {
        path { fill: #FFF; }
        }
    </style>
</svg>